<svg xmlns="http://www.w3.org/2000/svg" viewBox="0 0 1920 1080"><defs><style>.cls-1{fill:#0084ec;}.cls-2{fill:#fff;}.cls-3{fill:none;stroke:#fff;stroke-miterlimit:10;stroke-width:10px;}</style></defs><title>Portada Codigo de Etica</title><g id="Layer_2" data-name="Layer 2"><g id="Layer_2-2" data-name="Layer 2"><rect class="cls-1" width="1920" height="1080"/><polygon class="cls-2" points="922.13 822.85 905.61 822.85 896.78 833.96 887.94 822.85 871.42 822.85 888.52 844.34 871.42 865.82 887.94 865.82 896.78 854.71 905.61 865.82 922.13 865.82 905.03 844.34 922.13 822.85"/><path class="cls-2" d="M850.78,822.85H829.62a15.49,15.49,0,0,0-15.49,15.49v12a15.49,15.49,0,0,0,15.49,15.48h21.16a15.48,15.48,0,0,0,15.48-15.48v-12A15.48,15.48,0,0,0,850.78,822.85Zm1.35,33.74H828.26V832.08h23.87Z"/><path class="cls-2" d="M1013,822.85H991.8a15.48,15.48,0,0,0-15.48,15.49v12a15.48,15.48,0,0,0,15.48,15.48H1013a15.48,15.48,0,0,0,15.49-15.48v-12A15.48,15.48,0,0,0,1013,822.85Zm1.36,33.74H990.45V832.08h23.87Z"/><path class="cls-2" d="M969.74,832.08v-9.23H941.16a15.48,15.48,0,0,0-15.48,15.49v12a15.48,15.48,0,0,0,15.48,15.48h28.58v-9.23H939.81V832.08Z"/><path class="cls-2" d="M1035,822.85v43h13.67v-32.9h23.1v32.9h13.68V838.34A15.48,15.48,0,0,0,1070,822.85Z"/><path class="cls-2" d="M1092.83,822.85v43h13.68v-32.9h23.09v32.9h13.68V838.34a15.48,15.48,0,0,0-15.48-15.49Z"/><path class="cls-2" d="M808.2,832.92V822.85H780.07a15.48,15.48,0,0,0-15.48,15.49v27.48h13.68V850.34h28.06v-7.68H778.27v-9.74Z"/><path class="cls-2" d="M779.07,895a4.67,4.67,0,0,1-.44,2,5.11,5.11,0,0,1-1.19,1.6,5.31,5.31,0,0,1-1.73,1.05,6.17,6.17,0,0,1-2.12.37h-9.23V880.51h9.42a3.88,3.88,0,0,1,1.84.44A4.78,4.78,0,0,1,777,882.1a5.54,5.54,0,0,1,1.21,3.4,5.15,5.15,0,0,1-.74,2.71,4.6,4.6,0,0,1-2.07,1.83,4.89,4.89,0,0,1,2.66,1.85A5.21,5.21,0,0,1,779.07,895Zm-12.78-12.84v7.22H773a3,3,0,0,0,1.33-.3,3.41,3.41,0,0,0,1.06-.8,3.48,3.48,0,0,0,.69-1.14,3.74,3.74,0,0,0,.25-1.37,4.33,4.33,0,0,0-.23-1.4,3.55,3.55,0,0,0-.67-1.15,3.3,3.3,0,0,0-1-.77,2.85,2.85,0,0,0-1.27-.29Zm10.85,12.51a3.88,3.88,0,0,0-.25-1.39,3.63,3.63,0,0,0-.7-1.19,3.51,3.51,0,0,0-1.08-.82,2.87,2.87,0,0,0-1.33-.32h-7.49v7.41h7.3a3.28,3.28,0,0,0,1.39-.3,4,4,0,0,0,1.13-.82,3.71,3.71,0,0,0,.75-1.18A3.52,3.52,0,0,0,777.14,894.7Z"/><path class="cls-2" d="M798.81,880.51h1.63l8.12,19.56h-2L804,894h-8.78l-2.51,6.12h-2.07Zm4.74,11.93-3.94-9.67-4,9.67Z"/><path class="cls-2" d="M820.32,897.62a6.15,6.15,0,0,0,1.56.71,6.72,6.72,0,0,0,2.13.31,4.56,4.56,0,0,0,2.38-.54,3.43,3.43,0,0,0,1.37-1.58,8.17,8.17,0,0,0,.6-2.58c.1-1,.14-2.18.14-3.48v-10h1.93v10a35.9,35.9,0,0,1-.21,4.06,9.11,9.11,0,0,1-.86,3.12,4.82,4.82,0,0,1-1.93,2,7.07,7.07,0,0,1-3.42.71,7.3,7.3,0,0,1-4.24-1.21Z"/><path class="cls-2" d="M851.19,880.51h1.63l8.12,19.56h-2L856.37,894h-8.78l-2.51,6.12H843Zm4.74,11.93L852,882.77l-4,9.67Z"/><path class="cls-2" d="M889.56,890.15a10.56,10.56,0,0,1,.62-3.51,9.61,9.61,0,0,1,1.8-3.12,9.24,9.24,0,0,1,2.92-2.25,8.68,8.68,0,0,1,3.94-.87,8.18,8.18,0,0,1,4.48,1.19,7.31,7.31,0,0,1,2.74,3.08l-1.52.94A5.79,5.79,0,0,0,903.4,884a6.39,6.39,0,0,0-1.45-1.07,6.16,6.16,0,0,0-1.6-.59,7.59,7.59,0,0,0-1.62-.18,6.49,6.49,0,0,0-3.11.72,7,7,0,0,0-2.27,1.87,8.05,8.05,0,0,0-1.39,2.6,9.21,9.21,0,0,0-.47,2.93,8.66,8.66,0,0,0,.56,3.12,9.06,9.06,0,0,0,1.54,2.63,7.55,7.55,0,0,0,2.32,1.81,6.35,6.35,0,0,0,2.9.68,7.25,7.25,0,0,0,1.7-.21,6.81,6.81,0,0,0,3.18-1.79,5.67,5.67,0,0,0,1.15-1.64l1.6.83a6,6,0,0,1-1.32,1.94,8.8,8.8,0,0,1-1.9,1.42,9.7,9.7,0,0,1-2.22.88,9.2,9.2,0,0,1-2.3.3,7.79,7.79,0,0,1-3.69-.88,9.67,9.67,0,0,1-2.89-2.3,10.59,10.59,0,0,1-1.89-3.22A10.41,10.41,0,0,1,889.56,890.15Z"/><path class="cls-2" d="M926,880.51h1.62l8.12,19.56h-2L931.17,894h-8.78l-2.51,6.12h-2.06Zm4.73,11.93-3.94-9.67-4,9.67Z"/><path class="cls-2" d="M949,900.07V880.51H951v17.85h11.29v1.71Z"/><path class="cls-2" d="M975.54,900.07V880.51h1.93v19.56Z"/><path class="cls-2" d="M992.84,900.07V880.51h12.83v1.71H994.76v7.19h9.2V891h-9.2v9.06Z"/><path class="cls-2" d="M1027,900.21a8.27,8.27,0,0,1-3.73-.84,9.3,9.3,0,0,1-2.91-2.24,9.93,9.93,0,0,1-1.87-3.18,10.47,10.47,0,0,1-.66-3.66,10.1,10.1,0,0,1,.7-3.74,10.44,10.44,0,0,1,1.94-3.17,9.38,9.38,0,0,1,2.92-2.19,8.55,8.55,0,0,1,7.37,0,9.37,9.37,0,0,1,2.89,2.28,10.61,10.61,0,0,1,2.52,6.8,10.1,10.1,0,0,1-.7,3.74,10.24,10.24,0,0,1-1.93,3.16,9.32,9.32,0,0,1-2.91,2.17A8.12,8.12,0,0,1,1027,900.21Zm-7.24-9.92a9,9,0,0,0,.52,3.07,8.26,8.26,0,0,0,1.49,2.62,7.31,7.31,0,0,0,2.28,1.82,6.37,6.37,0,0,0,3,.67,6.27,6.27,0,0,0,3-.72,7.3,7.3,0,0,0,2.29-1.87,8.73,8.73,0,0,0,1.44-2.61,9,9,0,0,0,.51-3,8.86,8.86,0,0,0-.54-3.07,8.08,8.08,0,0,0-1.5-2.6,7.42,7.42,0,0,0-2.28-1.81,6.74,6.74,0,0,0-5.92,0,7.16,7.16,0,0,0-2.29,1.86,8.69,8.69,0,0,0-1.45,2.62A8.91,8.91,0,0,0,1019.72,890.29Z"/><path class="cls-2" d="M1050.23,900.07V880.51h8.26a5.06,5.06,0,0,1,2.33.54,6.06,6.06,0,0,1,1.83,1.41,6.54,6.54,0,0,1,1.2,2,6.27,6.27,0,0,1,.43,2.24,6.66,6.66,0,0,1-.32,2.05,6.45,6.45,0,0,1-.88,1.76,5.38,5.38,0,0,1-1.37,1.32,4.73,4.73,0,0,1-1.79.73l4.8,7.55h-2.18l-4.6-7.22h-5.78v7.22Zm1.93-8.93h6.39a3.2,3.2,0,0,0,1.55-.37,3.73,3.73,0,0,0,1.2-1,4.81,4.81,0,0,0,.77-1.43,5,5,0,0,0,.28-1.68,4.81,4.81,0,0,0-1.17-3.12,4.14,4.14,0,0,0-1.27-1,3.44,3.44,0,0,0-1.53-.36h-6.22Z"/><path class="cls-2" d="M1080.61,884.09v16h-1.93V880.51h1.49l12.94,16.28V880.54H1095v19.53h-1.68Z"/><path class="cls-2" d="M1110.41,900.07V880.51h1.92v19.56Z"/><path class="cls-2" d="M1133.76,880.51h1.63l8.12,19.56h-2l-2.53-6.12h-8.79l-2.5,6.12h-2.07Zm4.74,11.93-3.94-9.67-4,9.67Z"/><path class="cls-2" d="M1147.06,821.43v-5.87h2.52a1.67,1.67,0,0,1,1.27.59,2.07,2.07,0,0,1,.37.6,1.8,1.8,0,0,1,.14.68,2,2,0,0,1-.09.6,1.73,1.73,0,0,1-.25.51,1.65,1.65,0,0,1-.39.4,1.5,1.5,0,0,1-.51.24l1.43,2.25h-.85l-1.34-2.11h-1.56v2.11Zm.74-2.77h1.78a.82.82,0,0,0,.42-.1,1,1,0,0,0,.32-.27,1.22,1.22,0,0,0,.21-.39,1.49,1.49,0,0,0,.07-.47,1.18,1.18,0,0,0-.09-.46,1.09,1.09,0,0,0-.23-.39,1,1,0,0,0-.34-.27,1,1,0,0,0-.41-.09h-1.73Z"/><path class="cls-2" d="M1149.3,824.83a6.34,6.34,0,1,1,6.34-6.34A6.35,6.35,0,0,1,1149.3,824.83Zm0-12a5.65,5.65,0,1,0,5.65,5.64A5.65,5.65,0,0,0,1149.3,812.85Z"/><path class="cls-2" d="M392.52,462.45v5.4l-7,1.55L389,453h8l-.42,16.13a45.2,45.2,0,0,1-22,5.34c-20.22,0-36.47-11.92-36.47-36.44,0-24.86,17.48-36.45,37.2-36.45a40.94,40.94,0,0,1,20.57,5.19l.42,16.29h-8l-3.61-16.6,7,1.62v5.8c-5-4.51-9.21-6.37-13.95-6.37-11.22,0-21.07,9.13-21.07,30.59s9.46,30.37,20.57,30.37C382.46,468.42,387.59,466.25,392.52,462.45Z"/><path class="cls-2" d="M401.25,446.89c0-16.14,11.64-26.77,26.67-26.77s26.66,10.4,26.66,26.77-10.41,27.17-26.66,27.17C411.52,474.06,401.25,463,401.25,446.89Zm35.55.22c0-14.9-3-21.5-8.88-21.5s-8.89,6.6-8.89,21.5,3,21.47,8.89,21.47S436.8,462.09,436.8,447.11Zm-5.5-49.54c2.83-4.67,4.84-6.63,8.29-6.63a5.7,5.7,0,0,1,5.71,5.86c0,3.1-2.5,5.74-6.62,8.82-6.17,4.57-8.86,6.68-11.6,8.75l-4-3.21C424.92,408,426.83,404.85,431.3,397.57Z"/><path class="cls-2" d="M487.62,465c5.05,0,8.58-3.75,11.89-8.88l1.25,1.7c-5.2,11.23-11.58,16.29-20.9,16.29-11.9,0-21-9.39-21-26.51s11.27-27.43,23.12-27.43c9.1,0,13.48,5,18.34,14.32l-1.05,2.05c-4.12-5-7.11-7.48-11.4-7.48-6.36,0-11.22,5.92-11.22,18.33C476.68,458.88,481.16,465,487.62,465ZM516,467.58v4.89l-20.54,1.2-1.35-9.34V429.47l.62-1.14V406.42l-7.36-1.05v-4.43l22.2-4.73,1.69,1.07L510.82,412v60.51l-7.13-7.63Z"/><path class="cls-2" d="M527.37,472.47c.21-4.72.31-15.54.31-22.05v-5c0-5.77-.1-9-.31-13.23l-6.49-.94v-4.13l22-7,1.8,1.13-.31,15.24v13.93c0,6.51.1,17.33.31,22.05Zm22.38-4.89v4.89H521.89v-4.89l9.73-2.1h7.93ZM526.94,404c0-4.89,3.95-8.35,8.9-8.35s8.9,3.46,8.9,8.35-4,8.36-8.9,8.36S526.94,408.86,526.94,404Z"/><path class="cls-2" d="M590.84,482.05c0-3.05-2-6-7.73-6h-11c-4.59,0-8.53-.41-11.24-1.6v-.7c-5.35-1.68-7.55-5-7.55-9,0-5.49,3.85-10.32,10.39-15.45l2.76,1.72a9.67,9.67,0,0,0-2.32,6.4c0,2.46,1.61,4,6.09,4h12.27c16,0,21.59,6.22,21.59,15.33,0,10.7-10.65,19.58-30.85,19.58-17.39,0-22.49-5.86-22.49-12.28,0-5.15,3.79-9.26,11.74-12l1.51.93c-2.23,3.19-3.08,4.9-3.08,8.23,0,6.25,4.45,8.91,14,8.91C585.48,490.07,590.84,486.6,590.84,482.05ZM575,420.12c15,0,22,7,22,17,0,9.46-7.06,16.76-22,16.76s-22-7.11-22-16.76S560.06,420.12,575,420.12ZM567.94,437c0,7.44,2.11,11.93,6.95,11.93s7.29-4.58,7.29-12-2.49-11.8-7.14-11.8S567.94,429.56,567.94,437Zm35.47-17.09,1.65,1.05v8.1H590v-3.44Z"/><path class="cls-2" d="M605.73,446.89c0-16.14,11.64-26.77,26.67-26.77s26.67,10.4,26.67,26.77-10.41,27.17-26.67,27.17S605.73,463,605.73,446.89Zm35.55.22c0-14.9-3-21.5-8.88-21.5s-8.88,6.6-8.88,21.5,2.94,21.47,8.88,21.47S641.28,462.09,641.28,447.11Z"/><path class="cls-2" d="M716.26,465c5,0,8.57-3.75,11.89-8.88l1.24,1.7c-5.2,11.23-11.57,16.29-20.9,16.29-11.9,0-21-9.39-21-26.51s11.26-27.43,23.12-27.43c9.09,0,13.48,5,18.33,14.32l-1.05,2.05c-4.12-5-7.11-7.48-11.4-7.48-6.36,0-11.22,5.92-11.22,18.33C705.31,458.88,709.8,465,716.26,465Zm28.35,2.63v4.89l-20.53,1.2-1.36-9.34V429.47l.62-1.14V406.42L716,405.37v-4.43l22.2-4.73,1.7,1.07L739.46,412v60.51l-7.14-7.63Z"/><path class="cls-2" d="M795.37,442.3a22.83,22.83,0,0,1-.58,5.65H753.7v-5.54h19.68c5,0,6.35-1.89,6.35-6.57,0-6.89-3.3-10.31-7.11-10.31-4.37,0-8.35,4.76-8.35,19.93,0,12.8,6.34,18.58,14.19,18.58a16.85,16.85,0,0,0,12.73-5.64l3.62,3.41c-4.31,8.21-11.86,12.25-22,12.25-15.28,0-26.16-10-26.16-26.93,0-17.51,13.5-27,27-27C787.52,420.12,795.37,429.6,795.37,442.3Z"/><path class="cls-2" d="M872.55,442.3A22.8,22.8,0,0,1,872,448H830.87v-5.54h19.69c5,0,6.34-1.89,6.34-6.57,0-6.89-3.29-10.31-7.11-10.31-4.37,0-8.35,4.76-8.35,19.93,0,12.8,6.34,18.58,14.19,18.58a16.84,16.84,0,0,0,12.73-5.64l3.63,3.41c-4.31,8.21-11.87,12.25-22,12.25-15.28,0-26.16-10-26.16-26.93,0-17.51,13.5-27,27.05-27C864.69,420.12,872.55,429.6,872.55,442.3Zm-20.73-44.73c2.83-4.67,4.84-6.63,8.29-6.63a5.7,5.7,0,0,1,5.71,5.86c0,3.1-2.5,5.74-6.62,8.82-6.17,4.57-8.86,6.68-11.6,8.75l-4-3.21C845.44,408,847.35,404.85,851.82,397.57Z"/><path class="cls-2" d="M903.77,465.48c1.93,0,3.65-.79,5.7-2.33l2.57,2.53c-2.78,5.33-7.69,8.38-15.36,8.38-9.52,0-15.1-4.23-15.1-14.59,0-3.66.11-6.47.11-10.56v-20h-6.77v-6.26l12.41-1.6-6,4.22L888,407h10.71l-.24,18.91v32.43C898.42,463.24,900.66,465.48,903.77,465.48Zm5.66-43.76v7.2h-19.3v-7.2Z"/><path class="cls-2" d="M921.09,472.47c.21-4.72.32-15.54.32-22.05v-5c0-5.77-.11-9-.32-13.23l-6.49-.94v-4.13l22-7,1.8,1.13-.31,15.24v13.93c0,6.51.1,17.33.31,22.05Zm22.38-4.89v4.89H915.61v-4.89l9.73-2.1h7.93ZM920.66,404c0-4.89,4-8.35,8.9-8.35s8.9,3.46,8.9,8.35-4,8.36-8.9,8.36S920.66,408.86,920.66,404Z"/><path class="cls-2" d="M962.33,445.31c0,12.09,5.82,18.73,14.63,18.73,5,0,8.79-2.34,11.82-5.84l3.65,3.23c-4,8.56-11.6,12.63-21.54,12.63-14.31,0-26.14-9.17-26.14-26.82,0-17.17,12.68-27.12,28.36-27.12,11.09,0,18.86,6.92,19.61,15.29-1.13,3.76-3.31,5.48-7.07,5.48-4.15,0-7.56-2.56-8.06-9.95l-1-7.5,7.63,4.34a21,21,0,0,0-9.32-2.25C968.91,425.53,962.33,431.11,962.33,445.31Z"/><path class="cls-2" d="M1018,443.22c4.33-1.27,11.78-3.24,16.73-4.41v4.38c-5,1.25-10.62,2.79-13.69,4.2-4.76,2-7.85,5.55-7.85,10.49,0,5.26,2.77,7.69,6.31,7.69,2,0,3.65-.83,7-3.29l4.22-3.16,1.09,1.52-4.41,4.79c-5.09,5.39-8.35,8.63-16,8.63-8.12,0-13.77-4.79-13.77-13.43C997.63,453.16,1001.77,447.91,1018,443.22Zm8,20.65V437.58c0-9.3-1.8-12.05-8.5-12.05a37,37,0,0,0-9.83,1.51l7.23-4.09-.76,7.29c-.26,7-3.66,9.8-7.7,9.8-3.75,0-6.26-1.8-7.08-5.26.56-8.74,9-14.66,24.13-14.66,13.47,0,18.79,5.7,18.79,19.76v23.55c0,2.07.87,3.07,2.37,3.07,1.1,0,2-.57,3.19-2.31l2.78,1.85c-2.52,5.74-6.27,7.93-12.64,7.93C1030.78,474,1026.85,470.23,1025.94,463.87Z"/><path class="cls-2" d="M1081.89,428l-9.53-1.65v-4.58h29.91v4.53l-9.42,1.7Zm-9.2,61.49c.89-4.61,4.54-6.76,8.68-6.76a10.2,10.2,0,0,1,9,4.87l3.26,4.77-3.94,1.78-3.22-1.78c5-3,9.27-8.74,11.74-15.78l5.53-15.88,13.74-38.94h6.88l-21.18,55c-5.17,13.45-9.92,20.59-19.66,20.59C1077.94,497.35,1073.07,493.91,1072.69,489.44Zm26.66-10.37L1075,421.72h18.1l14.06,39Zm17.93-51.19-8.79-1.58v-4.58h19.83v4.58l-9,1.58Z"/><path class="cls-2" d="M1171.66,445.31c0,12.09,5.82,18.73,14.63,18.73,5,0,8.79-2.34,11.82-5.84l3.66,3.23c-4,8.56-11.6,12.63-21.55,12.63-14.31,0-26.14-9.17-26.14-26.82,0-17.17,12.69-27.12,28.36-27.12,11.09,0,18.86,6.92,19.62,15.29-1.13,3.76-3.31,5.48-7.08,5.48-4.14,0-7.55-2.56-8.06-9.95l-1-7.5,7.63,4.34a20.94,20.94,0,0,0-9.32-2.25C1178.24,425.53,1171.66,431.11,1171.66,445.31Z"/><path class="cls-2" d="M1205.7,446.89c0-16.14,11.64-26.77,26.67-26.77s26.66,10.4,26.66,26.77-10.4,27.17-26.66,27.17S1205.7,463,1205.7,446.89Zm35.55.22c0-14.9-3-21.5-8.88-21.5s-8.89,6.6-8.89,21.5,3,21.47,8.89,21.47S1241.25,462.09,1241.25,447.11Z"/><path class="cls-2" d="M1267.08,472.47c.21-4.72.32-15.54.32-22.05v-6.07c0-5.78-.11-8-.32-12.17l-6.43-.94v-4.13l20.72-7,1.8,1.13,1,11.65v17.52c0,6.51.1,17.33.31,22.05Zm22.14-4.89v4.89h-27.64v-4.89l9.73-2.1h8Zm26.52-29.39v12.23c0,6.72.11,17.33.32,22.05H1298.7c.21-4.72.31-15.33.31-22.05v-11c0-6.73-1.69-9.12-5.86-9.12-3.74,0-8.8,2.78-13,7.7h-3.57v-6.77h7.1l-4,3c7.36-10.63,13.33-14,20.86-14C1309.7,420.12,1315.74,426.07,1315.74,438.19Zm-4.88,27.29,10.28,2.1v4.89h-27.71v-4.89l9.5-2.1Z"/><path class="cls-2" d="M1351.36,465c5.05,0,8.57-3.75,11.89-8.88l1.24,1.7c-5.2,11.23-11.57,16.29-20.9,16.29-11.9,0-21-9.39-21-26.51s11.26-27.43,23.12-27.43c9.09,0,13.48,5,18.33,14.32l-1,2.05c-4.12-5-7.11-7.48-11.4-7.48-6.36,0-11.21,5.92-11.21,18.33C1340.42,458.88,1344.9,465,1351.36,465Zm28.35,2.63v4.89l-20.53,1.2-1.36-9.34V429.47l.62-1.14V406.42l-7.36-1.05v-4.43l22.2-4.73,1.7,1.07-.42,14.68v60.51l-7.14-7.63Z"/><path class="cls-2" d="M1402.82,455.25c0,6.54,2.13,8.66,5.71,8.66,4.14,0,9.22-4.22,12.35-8.63h4v6.94H1418l3.37-3c-5,9.37-12,14.85-20.63,14.85-9,0-15-5-14.83-18.9l.39-28.25,3.34,3.36-9.38-2.1v-4.43l21.4-3,1.66,1.12-.53,14.85Zm15.6,18.36-.86-12.36.39-34.41,3.34,3.43-9.08-2.1v-4.05l20.89-3.41,1.66,1.12-.32,14.85v34.88l-7-6.53,12.49,2.63v4.89Z"/><path class="cls-2" d="M1459,445.31c0,12.09,5.82,18.73,14.63,18.73,5,0,8.79-2.34,11.82-5.84l3.65,3.23c-4,8.56-11.6,12.63-21.54,12.63-14.31,0-26.14-9.17-26.14-26.82,0-17.17,12.68-27.12,28.36-27.12,11.09,0,18.86,6.92,19.62,15.29-1.14,3.76-3.32,5.48-7.08,5.48-4.14,0-7.55-2.56-8.06-9.95l-1-7.5,7.63,4.34a20.94,20.94,0,0,0-9.32-2.25C1465.56,425.53,1459,431.11,1459,445.31Z"/><path class="cls-2" d="M1521.94,465.48c1.93,0,3.65-.79,5.7-2.33l2.56,2.53c-2.77,5.33-7.69,8.38-15.36,8.38-9.52,0-15.09-4.23-15.09-14.59,0-3.66.1-6.47.1-10.56v-20h-6.77v-6.26l12.41-1.6-6,4.22,6.64-18.3h10.71l-.23,18.91v32.43C1516.59,463.24,1518.82,465.48,1521.94,465.48Zm5.65-43.76v7.2H1508.3v-7.2Z"/><path class="cls-2" d="M1552.86,443.22c4.33-1.27,11.78-3.24,16.73-4.41v4.38c-4.95,1.25-10.62,2.79-13.69,4.2-4.75,2-7.85,5.55-7.85,10.49,0,5.26,2.77,7.69,6.31,7.69,2,0,3.65-.83,7-3.29l4.22-3.16,1.09,1.52-4.41,4.79c-5.09,5.39-8.35,8.63-16,8.63-8.12,0-13.77-4.79-13.77-13.43C1532.53,453.16,1536.67,447.91,1552.86,443.22Zm8,20.65V437.58c0-9.3-1.8-12.05-8.5-12.05a37,37,0,0,0-9.83,1.51l7.23-4.09-.76,7.29c-.26,7-3.66,9.8-7.7,9.8-3.75,0-6.26-1.8-7.08-5.26.56-8.74,9-14.66,24.13-14.66,13.47,0,18.79,5.7,18.79,19.76v23.55c0,2.07.87,3.07,2.37,3.07,1.11,0,2-.57,3.19-2.31l2.78,1.85c-2.52,5.74-6.26,7.93-12.64,7.93C1565.68,474,1561.75,470.23,1560.84,463.87Z"/><path class="cls-2" d="M657.64,568.3a22.83,22.83,0,0,1-.58,5.65H616v-5.54h19.69c5,0,6.35-1.89,6.35-6.57,0-6.89-3.3-10.31-7.11-10.31-4.37,0-8.36,4.76-8.36,19.93,0,12.8,6.35,18.58,14.19,18.58a16.84,16.84,0,0,0,12.73-5.64l3.63,3.41c-4.31,8.21-11.86,12.25-22,12.25-15.29,0-26.16-10-26.16-26.93,0-17.51,13.49-27,27-27C649.79,546.12,657.64,555.6,657.64,568.3Z"/><path class="cls-2" d="M666.65,598.47c.21-4.72.31-15.54.31-22.05v-6.07c0-5.78-.1-8-.31-12.17l-6.43-.94v-4.13l20.71-7,1.81,1.13,1,11.65v17.52c0,6.51.11,17.33.32,22.05Zm22.13-4.89v4.89H661.15v-4.89l9.73-2.1h8Zm26.53-29.39v12.23c0,6.72.1,17.33.31,22.05H698.26c.21-4.72.32-15.33.32-22.05v-11c0-6.73-1.69-9.12-5.87-9.12-3.73,0-8.8,2.78-13,7.7h-3.57v-6.77h7.1l-4,2.95c7.36-10.63,13.34-14,20.87-14C709.26,546.12,715.31,552.07,715.31,564.19Zm-4.88,27.29,10.27,2.1v4.89H693v-4.89l9.51-2.1Z"/><path class="cls-2" d="M769.58,522.21l1.69,1.07L770.85,538v38.46q0,11,.32,22.05H753.8q.32-11,.32-22.05v-44l-6.52-1v-4.43Zm7.26,71.37v4.89H748.13v-4.89l10-2.1h7.93Z"/><path class="cls-2" d="M778.32,572.89c0-16.14,11.64-26.77,26.67-26.77s26.67,10.4,26.67,26.77S821.25,600.06,805,600.06,778.32,589,778.32,572.89Zm35.55.22c0-14.9-3-21.5-8.88-21.5s-8.88,6.6-8.88,21.5,2.94,21.47,8.88,21.47S813.87,588.09,813.87,573.11Z"/><path class="cls-2" d="M835.51,595.24l.26-12.89h8.45l2.38,14.06-5.9-2v-4.33c4.58,2.76,8.27,4.23,13.14,4.23,6,0,9.36-2,9.36-6.19,0-3.31-1.94-5.47-8.85-7.5L848.68,579c-8.12-2.39-12.7-7.77-12.7-15.67,0-9.68,7.77-17.17,21.92-17.17a35.15,35.15,0,0,1,16.64,4.23l-.72,11.52h-8.43l-3-13,5.82,2.52v3.86c-3.74-2.39-6-3.38-10.71-3.38s-7.82,2.08-7.82,5.88c0,2.91,1.56,4.92,8.78,7.09l5.12,1.46c10,3,14,8.44,14,16.24,0,11.1-8.95,17.48-23.75,17.48A35,35,0,0,1,835.51,595.24Z"/><path class="cls-2" d="M911,598.47c.21-4.72.31-15.54.31-22.05v-6.07c0-5.78-.1-8-.31-12.17l-6.43-.94v-4.13l20.71-7,1.81,1.13.95,11.65v17.52c0,6.51.11,17.33.32,22.05Zm22.13-4.89v4.89H905.51v-4.89l9.73-2.1h8Zm26.53-29.39v12.23c0,6.72.1,17.33.31,22.05H942.62c.21-4.72.32-15.33.32-22.05v-11c0-6.73-1.69-9.12-5.87-9.12-3.73,0-8.8,2.78-13,7.7h-3.57v-6.77h7.1l-4,2.95c7.36-10.63,13.34-14,20.87-14C953.62,546.12,959.67,552.07,959.67,564.19Zm-4.88,27.29,10.27,2.1v4.89H937.35v-4.89l9.51-2.1Z"/><path class="cls-2" d="M1015.29,568.3a22.83,22.83,0,0,1-.58,5.65H973.62v-5.54h19.69c5,0,6.34-1.89,6.34-6.57,0-6.89-3.3-10.31-7.11-10.31-4.37,0-8.35,4.76-8.35,19.93,0,12.8,6.34,18.58,14.19,18.58a16.85,16.85,0,0,0,12.73-5.64l3.63,3.41c-4.32,8.21-11.87,12.25-22,12.25-15.28,0-26.16-10-26.16-26.93,0-17.51,13.5-27,27.05-27C1007.44,546.12,1015.29,555.6,1015.29,568.3Z"/><path class="cls-2" d="M1057.2,608.05c0-3-2-6-7.72-6h-11c-4.59,0-8.52-.41-11.23-1.6v-.7c-5.36-1.68-7.56-5-7.56-9,0-5.49,3.86-10.32,10.39-15.45l2.76,1.72a9.71,9.71,0,0,0-2.31,6.4c0,2.46,1.61,4,6.09,4h12.27c16,0,21.58,6.22,21.58,15.33,0,10.7-10.65,19.58-30.84,19.58-17.39,0-22.49-5.86-22.49-12.28,0-5.15,3.78-9.26,11.74-12l1.51.93c-2.24,3.19-3.08,4.9-3.08,8.23,0,6.25,4.44,8.91,14,8.91C1051.84,616.07,1057.2,612.6,1057.2,608.05Zm-15.82-61.93c14.95,0,21.94,7,21.94,17,0,9.46-7,16.76-22,16.76s-22-7.11-22-16.76S1026.42,546.12,1041.38,546.12ZM1034.3,563c0,7.44,2.12,11.93,7,11.93s7.28-4.58,7.28-12-2.49-11.8-7.14-11.8S1034.3,555.56,1034.3,563Zm35.47-17.09,1.65,1.05v8.1h-15.05v-3.44Z"/><path class="cls-2" d="M1072.1,572.89c0-16.14,11.64-26.77,26.66-26.77s26.67,10.4,26.67,26.77-10.41,27.17-26.67,27.17S1072.1,589,1072.1,572.89Zm35.55.22c0-14.9-3-21.5-8.89-21.5s-8.88,6.6-8.88,21.5,2.95,21.47,8.88,21.47S1107.65,588.09,1107.65,573.11Z"/><path class="cls-2" d="M1147.16,571.31c0,12.09,5.82,18.73,14.63,18.73,5,0,8.79-2.34,11.82-5.84l3.66,3.23c-4,8.56-11.6,12.63-21.55,12.63-14.31,0-26.14-9.17-26.14-26.82,0-17.17,12.69-27.12,28.36-27.12,11.09,0,18.86,6.92,19.62,15.29-1.13,3.76-3.31,5.48-7.07,5.48-4.15,0-7.56-2.56-8.07-9.95l-1-7.5,7.64,4.34a21,21,0,0,0-9.33-2.25C1153.74,551.53,1147.16,557.11,1147.16,571.31Z"/><path class="cls-2" d="M1188.37,598.47c.21-4.72.31-15.54.31-22.05v-5c0-5.77-.1-9-.31-13.23l-6.49-.94v-4.13l22-7,1.8,1.13-.31,15.24v13.93c0,6.51.1,17.33.31,22.05Zm22.38-4.89v4.89h-27.86v-4.89l9.73-2.1h7.93ZM1187.94,530c0-4.89,4-8.35,8.9-8.35s8.9,3.46,8.9,8.35-4,8.36-8.9,8.36S1187.94,534.86,1187.94,530Z"/><path class="cls-2" d="M1211.93,572.89c0-16.14,11.64-26.77,26.67-26.77s26.67,10.4,26.67,26.77-10.41,27.17-26.67,27.17S1211.93,589,1211.93,572.89Zm35.55.22c0-14.9-3-21.5-8.88-21.5s-8.88,6.6-8.88,21.5,2.94,21.47,8.88,21.47S1247.48,588.09,1247.48,573.11Z"/><path class="cls-2" d="M1269.12,595.24l.26-12.89h8.45l2.38,14.06-5.9-2v-4.33c4.58,2.76,8.27,4.23,13.14,4.23,6,0,9.36-2,9.36-6.19,0-3.31-1.94-5.47-8.85-7.5l-5.67-1.63c-8.12-2.39-12.7-7.77-12.7-15.67,0-9.68,7.77-17.17,21.92-17.17a35.15,35.15,0,0,1,16.64,4.23l-.72,11.52H1299l-3-13,5.82,2.52v3.86c-3.73-2.39-6-3.38-10.71-3.38s-7.82,2.08-7.82,5.88c0,2.91,1.56,4.92,8.78,7.09l5.12,1.46c10,3,14,8.44,14,16.24,0,11.1-9,17.48-23.75,17.48A35,35,0,0,1,1269.12,595.24Z"/><polyline class="cls-3" points="1378.97 573.93 1678.92 573.93 1678.92 315.5 241.08 315.5 241.08 573.93 541.03 573.93"/></g></g></svg>