<svg xmlns="http://www.w3.org/2000/svg" viewBox="0 0 391.28 88.22"><defs><style>.cls-1{fill:#fff;}</style></defs><title>Logo Blsnco</title><g id="Layer_2" data-name="Layer 2"><g id="Layer_2-2" data-name="Layer 2"><polygon class="cls-1" points="157.77 10.7 141.25 10.7 132.42 21.8 123.58 10.7 107.06 10.7 124.16 32.18 107.06 53.66 123.58 53.66 132.42 42.56 141.25 53.66 157.77 53.66 140.67 32.18 157.77 10.7"/><path class="cls-1" d="M86.42,10.7H65.26A15.49,15.49,0,0,0,49.77,26.18v12A15.49,15.49,0,0,0,65.26,53.66H86.42A15.48,15.48,0,0,0,101.9,38.18v-12A15.48,15.48,0,0,0,86.42,10.7Zm1.35,33.74H63.9V19.92H87.77Z"/><path class="cls-1" d="M248.61,10.7H227.44A15.48,15.48,0,0,0,212,26.18v12a15.48,15.48,0,0,0,15.48,15.48h21.17a15.48,15.48,0,0,0,15.48-15.48v-12A15.48,15.48,0,0,0,248.61,10.7ZM250,44.44H226.09V19.92H250Z"/><path class="cls-1" d="M205.38,19.92V10.7H176.8a15.48,15.48,0,0,0-15.48,15.48v12A15.48,15.48,0,0,0,176.8,53.66h28.58V44.44H175.45V19.92Z"/><path class="cls-1" d="M270.67,10.7v43h13.68V20.76h23.09v32.9h13.68V26.18A15.48,15.48,0,0,0,305.63,10.7Z"/><path class="cls-1" d="M328.47,10.7v43h13.68V20.76h23.1v32.9h13.67V26.18A15.48,15.48,0,0,0,363.44,10.7Z"/><path class="cls-1" d="M43.84,20.76V10.7H15.71A15.48,15.48,0,0,0,.23,26.18V53.66H13.91V38.18H42V30.5H13.91V20.76Z"/><path class="cls-1" d="M14.71,82.87a4.71,4.71,0,0,1-.44,2,5.18,5.18,0,0,1-1.19,1.59,5.31,5.31,0,0,1-1.73,1.05,6,6,0,0,1-2.12.37H0V68.36H9.42a3.88,3.88,0,0,1,1.84.44,4.49,4.49,0,0,1,1.41,1.14,5.32,5.32,0,0,1,.89,1.6,5.43,5.43,0,0,1,.32,1.8,5.19,5.19,0,0,1-.74,2.72,4.72,4.72,0,0,1-2.07,1.83,4.87,4.87,0,0,1,2.66,1.84A5.23,5.23,0,0,1,14.71,82.87ZM1.93,70v7.21H8.65A3,3,0,0,0,10,77a3.26,3.26,0,0,0,1.06-.8A3.48,3.48,0,0,0,11.73,75,3.69,3.69,0,0,0,12,73.65a4.34,4.34,0,0,0-.23-1.41,3.56,3.56,0,0,0-.66-1.14,3.31,3.31,0,0,0-1-.77A2.73,2.73,0,0,0,8.81,70Zm10.85,12.5a3.88,3.88,0,0,0-.25-1.39,3.59,3.59,0,0,0-.7-1.18,3.54,3.54,0,0,0-1.08-.83,2.87,2.87,0,0,0-1.33-.32H1.93v7.41h7.3a3.28,3.28,0,0,0,1.39-.3,3.64,3.64,0,0,0,1.88-2A3.52,3.52,0,0,0,12.78,82.54Z"/><path class="cls-1" d="M34.45,68.36h1.63L44.2,87.91h-2L39.63,81.8H30.85l-2.51,6.11H26.27Zm4.74,11.92-3.94-9.66-4,9.66Z"/><path class="cls-1" d="M56,85.46a5.82,5.82,0,0,0,1.56.72,7,7,0,0,0,2.13.3A4.56,4.56,0,0,0,62,85.94a3.33,3.33,0,0,0,1.37-1.58,8.17,8.17,0,0,0,.6-2.57c.1-1,.14-2.19.14-3.49V68.36h1.93V78.3a35.78,35.78,0,0,1-.21,4.06A9,9,0,0,1,65,85.49a4.79,4.79,0,0,1-1.93,2,7,7,0,0,1-3.42.72A7.3,7.3,0,0,1,55.41,87Z"/><path class="cls-1" d="M86.84,68.36h1.62l8.12,19.55h-2L92,81.8H83.23l-2.51,6.11H78.66Zm4.73,11.92-3.94-9.66-4,9.66Z"/><path class="cls-1" d="M125.2,78a10.47,10.47,0,0,1,.62-3.51,9.66,9.66,0,0,1,1.8-3.13,9.18,9.18,0,0,1,2.92-2.24,8.68,8.68,0,0,1,3.94-.87A8.18,8.18,0,0,1,139,69.43a7.21,7.21,0,0,1,2.74,3.09l-1.52.93A5.73,5.73,0,0,0,139,71.83a6.43,6.43,0,0,0-1.45-1.08,6.23,6.23,0,0,0-1.59-.59,7.75,7.75,0,0,0-1.63-.18,6.52,6.52,0,0,0-3.11.72A7.14,7.14,0,0,0,129,72.57a8,8,0,0,0-1.39,2.61,9.21,9.21,0,0,0-.47,2.93,8.83,8.83,0,0,0,.56,3.11,8.93,8.93,0,0,0,1.54,2.63,7.58,7.58,0,0,0,2.32,1.82,6.34,6.34,0,0,0,2.9.67,7.8,7.8,0,0,0,1.7-.2,6.82,6.82,0,0,0,1.68-.66,7.38,7.38,0,0,0,1.5-1.13,5.81,5.81,0,0,0,1.15-1.64l1.6.82a5.9,5.9,0,0,1-1.32,2,8.45,8.45,0,0,1-1.9,1.41,9.72,9.72,0,0,1-2.22.89,9.2,9.2,0,0,1-2.3.3,7.91,7.91,0,0,1-3.69-.88,9.83,9.83,0,0,1-2.89-2.3,10.64,10.64,0,0,1-1.89-3.23A10.36,10.36,0,0,1,125.2,78Z"/><path class="cls-1" d="M161.64,68.36h1.62l8.12,19.55h-2l-2.54-6.11H158l-2.51,6.11h-2.06Zm4.73,11.92-3.94-9.66-4,9.66Z"/><path class="cls-1" d="M184.66,87.91V68.36h1.93V86.2h11.29v1.71Z"/><path class="cls-1" d="M211.18,87.91V68.36h1.93V87.91Z"/><path class="cls-1" d="M228.48,87.91V68.36h12.83v1.71H230.4v7.18h9.2v1.6h-9.2v9.06Z"/><path class="cls-1" d="M262.6,88.05a8.27,8.27,0,0,1-3.73-.84A9.27,9.27,0,0,1,256,85a10.15,10.15,0,0,1-1.87-3.18,10.52,10.52,0,0,1-.66-3.66,10.11,10.11,0,0,1,.7-3.75,10.56,10.56,0,0,1,1.94-3.17A9.7,9.7,0,0,1,259,69a8.26,8.26,0,0,1,3.64-.81,8.07,8.07,0,0,1,3.73.87,9.34,9.34,0,0,1,2.89,2.27,10.55,10.55,0,0,1,1.86,3.18,10.34,10.34,0,0,1,.66,3.62,10.11,10.11,0,0,1-.7,3.75,10.31,10.31,0,0,1-1.93,3.15,9.35,9.35,0,0,1-2.91,2.18A8.25,8.25,0,0,1,262.6,88.05Zm-7.24-9.91a9.13,9.13,0,0,0,.52,3.07,8.21,8.21,0,0,0,1.49,2.61,7.31,7.31,0,0,0,2.28,1.82,6.41,6.41,0,0,0,3,.68,6.27,6.27,0,0,0,3-.72,7.44,7.44,0,0,0,2.29-1.87,8.78,8.78,0,0,0,1.44-2.62,9,9,0,0,0,0-6,8.19,8.19,0,0,0-1.5-2.6,7.39,7.39,0,0,0-2.28-1.8,6.65,6.65,0,0,0-5.92,0,7,7,0,0,0-2.29,1.86,8.51,8.51,0,0,0-1.44,2.61A9,9,0,0,0,255.36,78.14Z"/><path class="cls-1" d="M285.87,87.91V68.36h8.26a5.06,5.06,0,0,1,2.33.54,5.87,5.87,0,0,1,1.83,1.4,6.51,6.51,0,0,1,1.2,2,6.22,6.22,0,0,1,.43,2.23,6.63,6.63,0,0,1-1.2,3.82,5.5,5.5,0,0,1-1.36,1.32,5,5,0,0,1-1.79.73l4.79,7.54h-2.18l-4.6-7.21H287.8v7.21ZM287.8,79h6.39a3.2,3.2,0,0,0,1.55-.37,3.64,3.64,0,0,0,1.2-1,4.81,4.81,0,0,0,.77-1.43A4.94,4.94,0,0,0,298,74.5a4.82,4.82,0,0,0-1.17-3.11,4,4,0,0,0-1.27-1,3.57,3.57,0,0,0-1.53-.35H287.8Z"/><path class="cls-1" d="M316.25,71.94v16h-1.93V68.36h1.49l12.94,16.28V68.39h1.93V87.91H329Z"/><path class="cls-1" d="M346.05,87.91V68.36H348V87.91Z"/><path class="cls-1" d="M369.4,68.36H371l8.12,19.55h-2l-2.53-6.11h-8.79l-2.5,6.11h-2.07Zm4.74,11.92-3.94-9.66-4,9.66Z"/><path class="cls-1" d="M382.7,9.28V3.4h2.52a1.57,1.57,0,0,1,.71.16,1.71,1.71,0,0,1,.56.43,2,2,0,0,1,.37.61,1.8,1.8,0,0,1,.14.68,2,2,0,0,1-.09.59,1.92,1.92,0,0,1-.25.52,1.61,1.61,0,0,1-.39.39,1.35,1.35,0,0,1-.51.25l1.43,2.25h-.85L385,7.17h-1.56V9.28Zm.74-2.78h1.78a.82.82,0,0,0,.42-.1.9.9,0,0,0,.32-.26,1.39,1.39,0,0,0,.21-.4,1.43,1.43,0,0,0,.07-.46,1.45,1.45,0,0,0-.08-.47,1.41,1.41,0,0,0-.24-.39,1,1,0,0,0-.34-.26.83.83,0,0,0-.41-.1h-1.73Z"/><path class="cls-1" d="M384.94,12.68a6.34,6.34,0,1,1,6.34-6.34A6.35,6.35,0,0,1,384.94,12.68Zm0-12a5.65,5.65,0,1,0,5.65,5.65A5.66,5.66,0,0,0,384.94.69Z"/></g></g></svg>