<svg xmlns="http://www.w3.org/2000/svg" viewBox="0 0 245.71 46.34"><defs><style>.cls-1,.cls-2{fill:#005198;}.cls-1{fill-rule:evenodd;}</style></defs><title>Loog azul SVG</title><g id="Layer_2" data-name="Layer 2"><g id="Layer_1-2" data-name="Layer 1"><path class="cls-1" d="M162,0c.38.11.76.23,1.15.32a9.07,9.07,0,0,1,7.22,9.08c0,3,0,5.95,0,8.93a11,11,0,0,1-1.21,5,8.4,8.4,0,0,1-7.87,4.73c-5,.1-9.93.18-14.89,0A10.67,10.67,0,0,1,138,23.54a7.1,7.1,0,0,1-1.3-4.31V9.77c0-5.18,2.88-8.57,8-9.45L146.39,0Zm-1,14.22V8.41c0-1.82-.41-2.25-2.22-2.32H148.37c-.5,0-1,.07-1.51.12a1.18,1.18,0,0,0-1.14,1.29c0,.71,0,1.42,0,2.13v10a7.32,7.32,0,0,0,.06,1.15A1.31,1.31,0,0,0,147.2,22q6.08,0,12.15,0c1.15,0,1.62-.49,1.63-1.63V14.22"/><path class="cls-1" d="M57.91,0c.41.11.82.23,1.23.33a9.11,9.11,0,0,1,7.17,9c-.08,3.15.08,6.31,0,9.46a9,9,0,0,1-9.15,9.32c-4.89,0-9.77,0-14.66,0-3.69,0-8.06-2.8-9.25-6a8.56,8.56,0,0,1-.49-2.75c0-3.23.05-6.46,0-9.69-.13-5,2.94-8.39,7.88-9.32L42.33,0ZM41.68,13.9h0c0,2.14,0,4.27,0,6.41,0,1.27.51,1.73,1.78,1.73h4.12c2.57,0,5.14,0,7.71,0C56.39,22,57,21.55,57,20.6c0-4.23,0-8.45,0-12.67,0-1.2-.39-1.72-1.57-1.74-4.14-.07-8.29,0-12.43,0-1,0-1.29.47-1.3,1.51,0,2.06,0,4.12,0,6.18"/><path class="cls-1" d="M245.71,28.12l-8.09,0h-1c0-.4,0-.72,0-1q0-9.32,0-18.63c0-2.22-.11-2.32-2.31-2.32H223.08c-1.36,0-1.82.45-1.82,1.84V28h-9.13V1c0-.33,0-.66,0-1h25.67a1.55,1.55,0,0,0,.4.17,9.4,9.4,0,0,1,7.26,7.46c.1.56.19,1.13.29,1.69Z"/><path class="cls-1" d="M200.17,0c.61.18,1.22.32,1.81.54A9.21,9.21,0,0,1,208.08,9c.07,6.18,0,12.37,0,18.56a3.58,3.58,0,0,1-.06.49h-8.92V8.18c0-.31,0-.61,0-.92-.09-.86-.42-1.18-1.28-1.18H185.39c-1.1,0-1.59.54-1.59,1.68V28h-9.12V1c0-.33,0-.66,0-1Z"/><path class="cls-1" d="M103.14,0Q98.55,5.36,94,10.72c-.43.5-.82,1-1.21,1.57a2.73,2.73,0,0,0,0,3.47C93.8,17.2,95,18.59,96.11,20c2.07,2.48,4.17,4.94,6.25,7.41.16.18.31.39.54.69h-2.52c-2.42,0-4.84,0-7.26,0a1.86,1.86,0,0,1-1.66-.79q-1.54-2-3.21-3.89c-.85-1-1.89-1.71-3.27-1.27a3.74,3.74,0,0,0-1.52,1.07c-1.29,1.44-2.5,3-3.76,4.42a1.09,1.09,0,0,1-.66.42c-3.43,0-6.86,0-10.46,0,.36-.46.64-.81.92-1.15l8.76-10.38c1.44-1.71,1.57-2.77.27-4.58-1.14-1.59-2.43-3.08-3.7-4.57-2.1-2.48-4.25-4.94-6.37-7.4h11c1.61,1.87,3.11,3.85,4.87,5.57,1.08,1,2.66.66,3.7-.57,1.39-1.65,2.74-3.33,4.11-5Z"/><path class="cls-1" d="M133.86,0V6.09H116.41c-1.44,0-1.84.38-1.84,1.78q0,6.42,0,12.84c0,.9.3,1.23,1.21,1.32.61.05,1.22.06,1.83.06h16.16v6c-.27,0-.52,0-.77,0-6,0-12,0-18,0a9.61,9.61,0,0,1-7.36-2.95,8.33,8.33,0,0,1-2.24-5.76c0-3.36,0-6.72,0-10.08A9.37,9.37,0,0,1,113.13.18a4,4,0,0,0,.56-.18Z"/><path class="cls-1" d="M28.57,0V6.23H11.66c-1.69,0-2.44.71-2.49,2.38,0,.79,0,1.58,0,2.37a1.14,1.14,0,0,0,1.13,1.27,10.87,10.87,0,0,0,1.14.05H26.26c.33,0,.66,0,1,0v4.89H11.58A2.05,2.05,0,0,0,9.3,19.17a12.32,12.32,0,0,0-.13,1.6c0,2.14,0,4.28,0,6.42,0,.27,0,.54,0,.93H0V8.86c.11-.51.22-1,.34-1.54C1.18,3.62,3.19,1,7.09.24c.34-.07.67-.16,1-.24Z"/><path class="cls-1" d="M5,40.55a3.58,3.58,0,0,0,1-2.69,3.32,3.32,0,0,0-2.57-2.55H0V46.18H4.78S9.05,43,5,40.55M1.3,36.3H3a2.23,2.23,0,0,1,1.81,2c0,1.11-1.32,1.79-1.32,1.79H1.3Zm2.42,8.92H1.3V41.11H3.17a2.45,2.45,0,0,1,2,2.16c0,1.21-1.48,1.95-1.48,1.95"/><path class="cls-1" d="M21.36,35.37H19.84L15.67,46.14h1.54l1.21-3.48H22.9l1.42,3.48h1.4Zm-2.58,6.27L20.68,37l1.9,4.69Z"/><path class="cls-1" d="M55.61,35.37H54.09L49.92,46.14h1.54l1.21-3.48h4.48l1.42,3.48H60ZM53,41.64,54.93,37l1.9,4.69Z"/><path class="cls-1" d="M108,35.37h-1.51l-4.18,10.77h1.54l1.22-3.48h4.47L111,46.14h1.4Zm-2.57,6.27L107.35,37l1.9,4.69Z"/><path class="cls-1" d="M241.35,35.37h-1.51l-4.18,10.77h1.54l1.22-3.48h4.47l1.42,3.48h1.4Zm-2.57,6.27,1.9-4.69,1.89,4.69Z"/><path class="cls-1" d="M34.53,43.32h1.22s0,1.91,1.79,1.91S39,43.38,39,43.38l0-8.06h1.26v9.11s-.66,1.75-1.92,1.75H36.25a3.3,3.3,0,0,1-1.72-2.86"/><rect class="cls-2" x="137.44" y="35.31" width="1.58" height="10.85"/><rect class="cls-2" x="224.67" y="35.31" width="1.58" height="10.85"/><polygon class="cls-1" points="123.64 45.21 123.64 35.31 122.06 35.31 122.06 46.16 123.48 46.16 123.64 46.16 127.55 46.16 127.55 45.21 123.64 45.21"/><path class="cls-2" d="M171.46,34.79a5.78,5.78,0,1,0,5.83,5.78,5.82,5.82,0,0,0-5.83-5.78m0,10.35a4.46,4.46,0,1,1,4.17-4.45,4.33,4.33,0,0,1-4.17,4.45"/><path class="cls-1" d="M92,43.34a4.25,4.25,0,0,1-3.54,2,4.62,4.62,0,0,1,0-9.23A4.29,4.29,0,0,1,92,38.15h1.45a5.61,5.61,0,1,0-.18,5.19Z"/><polygon class="cls-1" points="155.35 36.28 155.35 35.31 151.2 35.31 149.62 35.31 149.62 36.28 149.62 46.16 151.2 46.16 151.2 41.4 155.35 41.4 155.35 40.41 151.2 40.41 151.2 36.28 155.35 36.28"/><polygon class="cls-1" points="212.53 35.31 212.53 44.28 206.92 35.31 205.2 35.31 205.2 46.16 206.8 46.16 206.8 37.55 212.22 46.16 213.83 46.16 213.83 35.31 212.53 35.31"/><path class="cls-2" d="M194.8,38.92a3.58,3.58,0,0,0-2.74-3.61H187.6V46.16h1.3V36.3h2.5a2.48,2.48,0,0,1,2,2.38c0,2.34-1.58,2.38-1.58,2.38h-1.95l3.21,5.1h1.73l-2.45-4.07s2.45-.12,2.45-3.17"/></g></g></svg>